{
    "asset" : {
        "generator" : "Khronos glTF Blender I/O v1.6.16",
        "version" : "2.0"
    },
    "scene" : 0,
    "scenes" : [
        {
            "name" : "Scene",
            "nodes" : [
                0,
                1,
                2
            ]
        }
    ],
    "nodes" : [
        {
            "name" : "Light",
            "rotation" : [
                0.16907575726509094,
                0.7558803558349609,
                -0.27217137813568115,
                0.570947527885437
            ],
            "translation" : [
                4.076245307922363,
                5.903861999511719,
                -1.0054539442062378
            ]
        },
        {
            "name" : "Camera",
            "rotation" : [
                0.483536034822464,
                0.33687159419059753,
                -0.20870360732078552,
                0.7804827094078064
            ],
            "translation" : [
                10.544889450073242,
                9.217850685119629,
                -15.237671852111816
            ]
        },
        {
            "mesh" : 0,
            "name" : "Cylinder.002",
            "scale" : [
                1,
                0.7178230881690979,
                1
            ],
            "translation" : [
                0.04685986042022705,
                -0.37986066937446594,
                -0.1778162568807602
            ]
        }
    ],
    "materials" : [
        {
            "doubleSided" : true,
            "name" : "metal",
            "pbrMetallicRoughness" : {
                "baseColorFactor" : [
                    0.800000011920929,
                    0.800000011920929,
                    0.800000011920929,
                    1
                ],
                "roughnessFactor" : 0.1111111044883728
            }
        },
        {
            "doubleSided" : true,
            "name" : "noir",
            "pbrMetallicRoughness" : {
                "baseColorFactor" : [
                    0.0025793667882680893,
                    0.0025793667882680893,
                    0.0025793667882680893,
                    1
                ],
                "metallicFactor" : 0,
                "roughnessFactor" : 0.800000011920929
            }
        }
    ],
    "meshes" : [
        {
            "name" : "Cylinder.010",
            "primitives" : [
                {
                    "attributes" : {
                        "POSITION" : 0,
                        "NORMAL" : 1,
                        "TEXCOORD_0" : 2
                    },
                    "indices" : 3,
                    "material" : 0
                },
                {
                    "attributes" : {
                        "POSITION" : 4,
                        "NORMAL" : 5,
                        "TEXCOORD_0" : 6
                    },
                    "indices" : 7,
                    "material" : 1
                }
            ]
        }
    ],
    "accessors" : [
        {
            "bufferView" : 0,
            "componentType" : 5126,
            "count" : 1426,
            "max" : [
                0.8490092754364014,
                2.1115803718566895,
                0.9907433986663818
            ],
            "min" : [
                -0.883041501045227,
                -3.3733937740325928,
                -1.0092564821243286
            ],
            "type" : "VEC3"
        },
        {
            "bufferView" : 1,
            "componentType" : 5126,
            "count" : 1426,
            "type" : "VEC3"
        },
        {
            "bufferView" : 2,
            "componentType" : 5126,
            "count" : 1426,
            "type" : "VEC2"
        },
        {
            "bufferView" : 3,
            "componentType" : 5123,
            "count" : 4428,
            "type" : "SCALAR"
        },
        {
            "bufferView" : 4,
            "componentType" : 5126,
            "count" : 278,
            "max" : [
                0.8639451861381531,
                4.035869598388672,
                0.9907439947128296
            ],
            "min" : [
                -0.883041501045227,
                -3.3733937740325928,
                -1.0092564821243286
            ],
            "type" : "VEC3"
        },
        {
            "bufferView" : 5,
            "componentType" : 5126,
            "count" : 278,
            "type" : "VEC3"
        },
        {
            "bufferView" : 6,
            "componentType" : 5126,
            "count" : 278,
            "type" : "VEC2"
        },
        {
            "bufferView" : 7,
            "componentType" : 5123,
            "count" : 456,
            "type" : "SCALAR"
        }
    ],
    "bufferViews" : [
        {
            "buffer" : 0,
            "byteLength" : 17112,
            "byteOffset" : 0
        },
        {
            "buffer" : 0,
            "byteLength" : 17112,
            "byteOffset" : 17112
        },
        {
            "buffer" : 0,
            "byteLength" : 11408,
            "byteOffset" : 34224
        },
        {
            "buffer" : 0,
            "byteLength" : 8856,
            "byteOffset" : 45632
        },
        {
            "buffer" : 0,
            "byteLength" : 3336,
            "byteOffset" : 54488
        },
        {
            "buffer" : 0,
            "byteLength" : 3336,
            "byteOffset" : 57824
        },
        {
            "buffer" : 0,
            "byteLength" : 2224,
            "byteOffset" : 61160
        },
        {
            "buffer" : 0,
            "byteLength" : 912,
            "byteOffset" : 63384
        }
    ],
    "buffers" : [
        {
            "byteLength" : 64296,
            "uri" : "data:application/octet-stream;base64,"
        }
    ]
}
